<svg xmlns="http://www.w3.org/2000/svg" viewBox="0 0 699.85 699.85"><defs><style>.cls-1{fill:#6b2135;}.cls-2{fill:#350713;}.cls-3{fill:#ee9baf;}.cls-4{fill:#f8d8d6;}</style></defs><g id="Capa_2" data-name="Capa 2"><g id="flor"><path class="cls-1" d="M349.92,349.92s-51.45-124.34-50.54-223.33S330-1.94,359.32.1s54.78,59.65,47.44,151.76S349.92,349.92,349.92,349.92Z"/><path class="cls-2" d="M349.92,349.92S225.61,298.38,156.26,227.74,87,115.2,109.2,95.92s80.92,3.44,140.86,73.77S349.92,349.92,349.92,349.92Z"/><path class="cls-1" d="M349.92,349.92s-124.34,51.46-223.33,50.54S-1.94,369.84.1,340.53s59.65-54.79,151.76-47.44S349.92,349.92,349.92,349.92Z"/><path class="cls-2" d="M349.92,349.92S298.38,474.23,227.74,543.58,115.2,612.81,95.92,590.64s3.44-80.92,73.77-140.85S349.92,349.92,349.92,349.92Z"/><path class="cls-1" d="M349.92,349.92s51.46,124.35,50.54,223.34-30.62,128.53-59.93,126.49S285.74,640.09,293.09,548,349.92,349.92,349.92,349.92Z"/><path class="cls-2" d="M349.92,349.92s124.31,51.54,193.66,122.19,69.23,112.53,47.06,131.82-80.92-3.44-140.85-73.77S349.92,349.92,349.92,349.92Z"/><path class="cls-1" d="M349.92,349.92s124.35-51.45,223.34-50.54S701.79,330,699.75,359.32,640.09,414.1,548,406.76,349.92,349.92,349.92,349.92Z"/><path class="cls-2" d="M349.92,349.92s51.54-124.31,122.19-193.66S584.64,87,603.93,109.2s-3.44,80.92-73.77,140.86S349.92,349.92,349.92,349.92Z"/><path class="cls-3" d="M349.92,349.92s-1.13-134.56,36.81-226,76.54-107.7,103-94.83,28.45,75.83-12.87,158.48S349.92,349.92,349.92,349.92Z"/><path class="cls-4" d="M349.92,349.92s-96-94.35-133.78-185.83-22-130.28,5.74-139.85,73.74,33.5,103,121.16S349.92,349.92,349.92,349.92Z"/><path class="cls-3" d="M349.92,349.92s-134.56,1.13-226-36.8-107.7-76.54-94.83-103S104.92,181.72,187.57,223,349.92,349.92,349.92,349.92Z"/><path class="cls-4" d="M349.92,349.92s-94.35,95.95-185.83,133.79S33.81,505.74,24.24,478s33.5-73.74,121.16-103S349.92,349.92,349.92,349.92Z"/><path class="cls-3" d="M349.92,349.92s1.13,134.57-36.8,226-76.54,107.7-103,94.83S181.72,594.92,223,512.27,349.92,349.92,349.92,349.92Z"/><path class="cls-4" d="M349.92,349.92s95.95,94.36,133.79,185.84S505.74,666,478,675.61,404.22,642.1,375,554.45,349.92,349.92,349.92,349.92Z"/><path class="cls-3" d="M349.92,349.92s134.57-1.13,226,36.81,107.7,76.54,94.83,103-75.84,28.45-158.49-12.87S349.92,349.92,349.92,349.92Z"/><path class="cls-4" d="M349.92,349.92s94.36-96,185.84-133.78,130.27-22,139.85,5.74-33.51,73.74-121.16,103S349.92,349.92,349.92,349.92Z"/></g></g></svg>